<?xml version="1.0" encoding="utf-8"?>
<!-- Generator: Adobe Illustrator 27.3.1, SVG Export Plug-In . SVG Version: 6.00 Build 0)  -->
<svg version="1.1" id="Слой_1" xmlns="http://www.w3.org/2000/svg" xmlns:xlink="http://www.w3.org/1999/xlink" x="0px" y="0px"
	 viewBox="0 0 1080 1080" style="enable-background:new 0 0 1080 1080;" xml:space="preserve">
<style type="text/css">
	.st0{fill:#25436D;}
	.st1{fill:#8AADD8;}
</style>
<g>
	<g>
		<g>
			<path class="st0" d="M302.01,497.26v15.79L275.08,540l-64.48-64.51c2.89-20.31,5.79-40.62,8.71-60.93L302.01,497.26z"/>
			<path class="st0" d="M197.54,436.33v52.25l-13.06-13.06v-0.02c-2.92-20.31-5.81-40.62-8.71-60.93L197.54,436.33z"/>
			<path class="st1" d="M219.31,414.56c-1.51,10.17-2.97,20.36-4.43,30.53c-1.46,10.14-2.87,20.29-4.28,30.41l-12.26,12.26
				l-0.8,0.83v-52.25L219.31,414.56z"/>
		</g>
		<g>
			<path class="st0" d="M184.48,604.51c-2.92,20.31-5.81,40.62-8.71,60.93l-82.73-82.7v-15.81L119.97,540L184.48,604.51z"/>
			<path class="st0" d="M219.31,665.44l-21.77-21.77v-52.22l13.06,13.06C213.5,624.82,216.39,645.13,219.31,665.44z"/>
			<path class="st1" d="M302.01,513.05c0,0.56-0.02,1.12-0.02,1.68c-0.34,23.03-0.66,46.05-1.02,69.06l-81.66,81.66
				c-2.92-20.31-5.81-40.62-8.71-60.93v-0.02L275.08,540L302.01,513.05z"/>
		</g>
		<path class="st1" d="M197.54,591.45v52.22l-21.77,21.77c2.89-20.31,5.79-40.62,8.71-60.93L197.54,591.45z"/>
		<path class="st1" d="M184.48,475.49v0.02C162.97,497,141.47,518.5,119.97,540l-26.93,26.93v-69.66l82.73-82.7
			C178.66,434.87,181.56,455.18,184.48,475.49z"/>
	</g>
	<g>
		<path class="st0" d="M385.37,583.59h-12.88l12.88-111.41l42.44,76.85l42.44-76.85l12.88,111.41h-12.88l-7.88-71.69l-34.56,61.84
			l-34.56-61.84L385.37,583.59z"/>
		<path class="st0" d="M503.07,479.16c1.67-1.62,3.61-2.43,5.84-2.43c2.32,0,4.29,0.81,5.91,2.43c1.62,1.62,2.43,3.59,2.43,5.91
			c0,2.22-0.81,4.17-2.43,5.84c-1.62,1.67-3.59,2.5-5.91,2.5c-2.22,0-4.17-0.83-5.84-2.5c-1.67-1.67-2.5-3.61-2.5-5.84
			C500.56,482.75,501.4,480.78,503.07,479.16z M514.96,513.87v69.72h-12.13v-69.72H514.96z"/>
		<path class="st0" d="M577.87,528.12c-2.53-2.93-6.21-4.4-11.07-4.4c-3.54,0-6.64,0.73-9.32,2.2c-2.68,1.47-4.75,3.51-6.21,6.14
			c-1.47,2.63-2.2,5.66-2.2,9.09v42.44h-12.13v-69.72h12.13v10.91c2.32-4.24,5.23-7.38,8.71-9.4c3.49-2.02,7.5-3.03,12.05-3.03
			c7.38,0,13.21,2.45,17.51,7.35c4.29,4.9,6.44,11.55,6.44,19.93v43.96h-12.12v-42.44C581.66,535.39,580.39,531.05,577.87,528.12z"
			/>
		<path class="st0" d="M612.12,529.25c3.13-5.4,7.33-9.57,12.58-12.5c5.25-2.93,11.01-4.4,17.28-4.4c5.86,0,10.96,1.47,15.31,4.4
			c4.34,2.93,7.75,7.1,10.23,12.5c2.48,5.41,3.71,11.9,3.71,19.48c0,7.48-1.24,13.94-3.71,19.4c-2.48,5.46-5.89,9.65-10.23,12.58
			c-4.35,2.93-9.45,4.4-15.31,4.4c-6.27,0-12.03-1.47-17.28-4.4c-5.25-2.93-9.45-7.12-12.58-12.58c-3.13-5.46-4.7-11.92-4.7-19.4
			C607.42,541.15,608.99,534.66,612.12,529.25z M622.96,562.37c2.17,3.74,5.08,6.57,8.72,8.49c3.64,1.92,7.58,2.88,11.82,2.88
			c3.54,0,7.02-0.96,10.46-2.88c3.43-1.92,6.26-4.75,8.49-8.49c2.22-3.74,3.33-8.29,3.33-13.64c0-5.36-1.11-9.9-3.33-13.64
			c-2.22-3.74-5.05-6.57-8.49-8.49c-3.44-1.92-6.92-2.88-10.46-2.88c-4.24,0-8.18,0.96-11.82,2.88c-3.64,1.92-6.54,4.75-8.72,8.49
			c-2.17,3.74-3.26,8.29-3.26,13.64C619.7,554.09,620.78,558.64,622.96,562.37z M677.9,465.37v118.23h-12.13V465.37H677.9z"/>
		<path class="st0" d="M711.25,583.59h-12.13V465.37h12.13V583.59z M764.91,568.13c-3.13,5.46-7.3,9.65-12.5,12.58
			c-5.21,2.93-10.99,4.4-17.35,4.4c-5.76,0-10.84-1.47-15.23-4.4s-7.83-7.12-10.31-12.58c-2.48-5.46-3.71-11.92-3.71-19.4
			c0-7.58,1.24-14.07,3.71-19.48c2.47-5.4,5.91-9.57,10.31-12.5c4.4-2.93,9.47-4.4,15.23-4.4c6.37,0,12.15,1.47,17.35,4.4
			c5.2,2.93,9.37,7.1,12.5,12.5c3.13,5.41,4.7,11.9,4.7,19.48C769.6,556.21,768.04,562.68,764.91,568.13z M754.07,535.09
			c-2.17-3.74-5.05-6.57-8.64-8.49c-3.59-1.92-7.56-2.88-11.9-2.88c-3.54,0-7.02,0.96-10.46,2.88c-3.44,1.92-6.27,4.75-8.49,8.49
			c-2.22,3.74-3.33,8.29-3.33,13.64c0,5.36,1.11,9.9,3.33,13.64c2.22,3.74,5.05,6.57,8.49,8.49c3.43,1.92,6.92,2.88,10.46,2.88
			c4.34,0,8.31-0.96,11.9-2.88c3.58-1.92,6.46-4.75,8.64-8.49c2.17-3.74,3.26-8.29,3.26-13.64
			C757.33,543.38,756.24,538.83,754.07,535.09z"/>
		<path class="st0" d="M793.63,568.89c1.26,1.92,3.03,3.36,5.3,4.32c2.27,0.96,4.87,1.44,7.81,1.44c3.74,0,7.1-0.76,10.08-2.27
			c2.98-1.52,5.35-3.66,7.12-6.44c1.77-2.78,2.65-5.99,2.65-9.62l2.42,9.09c0,4.45-1.34,8.13-4.02,11.06
			c-2.68,2.93-5.96,5.1-9.85,6.52c-3.89,1.41-7.76,2.12-11.59,2.12c-4.24,0-8.21-0.89-11.9-2.65c-3.69-1.77-6.65-4.32-8.87-7.65
			c-2.22-3.33-3.33-7.38-3.33-12.13c0-6.77,2.4-12.2,7.2-16.29c4.8-4.09,11.49-6.14,20.08-6.14c5.05,0,9.27,0.58,12.66,1.74
			c3.38,1.16,6.09,2.48,8.11,3.94c2.02,1.47,3.38,2.65,4.09,3.56v7.12c-3.54-2.43-7.18-4.17-10.91-5.23
			c-3.74-1.06-7.73-1.59-11.97-1.59c-3.94,0-7.15,0.51-9.62,1.52c-2.48,1.01-4.32,2.43-5.53,4.24c-1.21,1.82-1.82,3.99-1.82,6.52
			C791.73,564.7,792.36,566.97,793.63,568.89z M784,520.99c2.63-1.92,6.24-3.84,10.84-5.76c4.6-1.92,10.13-2.88,16.6-2.88
			c5.46,0,10.23,0.83,14.32,2.5s7.28,4.07,9.55,7.2c2.27,3.13,3.41,6.97,3.41,11.52v50.02h-12.13v-48.35c0-2.43-0.41-4.42-1.21-5.99
			c-0.81-1.57-1.95-2.8-3.41-3.71c-1.47-0.91-3.16-1.57-5.08-1.97c-1.92-0.4-3.94-0.61-6.06-0.61c-3.44,0-6.54,0.4-9.32,1.21
			c-2.78,0.81-5.13,1.77-7.05,2.88c-1.92,1.11-3.44,2.07-4.55,2.88L784,520.99z"/>
		<path class="st0" d="M866.91,568.13c1.82,1.82,3.91,3.26,6.29,4.32c2.37,1.06,4.98,1.59,7.81,1.59c3.43,0,6.14-0.78,8.11-2.35
			c1.97-1.57,2.96-3.71,2.96-6.44c0-2.43-0.78-4.47-2.35-6.14c-1.57-1.67-3.56-3.08-5.99-4.24c-2.42-1.16-5-2.25-7.73-3.26
			c-3.03-1.21-6.09-2.65-9.17-4.32c-3.08-1.67-5.66-3.84-7.73-6.52c-2.07-2.68-3.11-6.04-3.11-10.08c0-4.14,1.08-7.58,3.26-10.31
			c2.17-2.73,5-4.75,8.49-6.06c3.49-1.31,7.1-1.97,10.84-1.97c3.74,0,7.25,0.61,10.53,1.82c3.28,1.21,6.19,2.83,8.72,4.85
			c2.52,2.02,4.49,4.35,5.91,6.97l-9.7,6.21c-1.92-2.63-4.32-4.8-7.2-6.52c-2.88-1.72-6.14-2.58-9.78-2.58
			c-2.53,0-4.7,0.56-6.52,1.67c-1.82,1.11-2.73,2.83-2.73,5.15c0,1.82,0.71,3.44,2.12,4.85c1.41,1.42,3.23,2.68,5.46,3.79
			c2.22,1.11,4.55,2.17,6.97,3.18c4.04,1.62,7.73,3.36,11.06,5.23c3.33,1.87,5.99,4.12,7.96,6.75c1.97,2.63,2.96,6.01,2.96,10.16
			c0,6.06-2.2,11.12-6.59,15.16c-4.4,4.04-10.18,6.06-17.36,6.06c-4.65,0-8.84-0.83-12.58-2.5c-3.74-1.67-6.9-3.81-9.47-6.44
			c-2.58-2.63-4.52-5.31-5.83-8.03l9.55-5.91C863.47,564.34,865.09,566.31,866.91,568.13z"/>
		<path class="st0" d="M930.04,580.49c-5-3.08-8.89-7.35-11.67-12.81c-2.78-5.46-4.17-11.77-4.17-18.95c0-7.28,1.44-13.64,4.32-19.1
			s6.92-9.7,12.13-12.73c5.2-3.03,11.24-4.55,18.11-4.55c6.87,0,12.76,1.44,17.66,4.32c4.9,2.88,8.66,7,11.29,12.35
			c2.63,5.36,3.94,11.72,3.94,19.1c0,0.71-0.03,1.44-0.08,2.2c-0.05,0.76-0.08,1.24-0.08,1.44h-59.57v-10.31h50.02l-4.85,6.97
			c0.3-0.5,0.61-1.29,0.91-2.35c0.3-1.06,0.46-1.94,0.46-2.65c0-4.14-0.83-7.73-2.5-10.76c-1.67-3.03-3.97-5.4-6.9-7.12
			c-2.93-1.72-6.37-2.58-10.31-2.58c-4.65,0-8.62,0.98-11.9,2.96c-3.28,1.97-5.81,4.8-7.58,8.49c-1.77,3.69-2.71,8.21-2.8,13.57
			c0,5.46,0.86,10.11,2.58,13.94c1.72,3.84,4.24,6.77,7.58,8.79c3.33,2.02,7.38,3.03,12.12,3.03c4.75,0,8.94-1.03,12.58-3.11
			c3.64-2.07,6.72-5.23,9.25-9.47l9.85,6.21c-3.64,5.86-8.21,10.28-13.72,13.26c-5.51,2.98-12,4.47-19.48,4.47
			C940.78,585.11,935.04,583.57,930.04,580.49z"/>
	</g>
</g>
</svg>
